#!OML:ASF F:\VICON\USERDATA\INSTALL\rory3\rory3.ASF
:FULLY-SPECIFIED
:DEGREES
1320
root -0.0695448 17.5564 -5.45207 36.8056 -17.8572 2.40609
lowerback 36.1437 -4.51027 -6.59927
upperback 10.7631 -7.84997 -0.66996
thorax -5.24585 -3.81709 5.42668
lowerneck -16.4491 1.92277 -3.79191
upperneck 1.10601 3.01829 4.71982
head 3.16522 1.692 2.51051
rclavicle -1.27222e-013 1.12512e-013
rhumerus -56.1752 -57.3411 5.99872
rradius 16.5983
rwrist 24.7607
rhand -29.9818 0.525543
rfingers 7.12502
rthumb -3.29989 -29.4287
lclavicle -1.27222e-013 1.12512e-013
lhumerus 36.5837 11.393 42.3157
lradius 35.2886
lwrist -5.74778
lhand -26.8276 15.8744
lfingers 7.12502
lthumb -0.253586 45.854
rfemur -66.75 12.038 -19.7341
rtibia 30.3347
rfoot -10.2167 -10.5831
rtoes -6.6154
lfemur -54.7243 11.4051 -7.50763
ltibia 30.3347
lfoot -11.786 19.7436
ltoes 1.40292
1321
root -0.0703409 17.5718 -5.44841 35.7444 -17.4284 2.60079
lowerback 35.7558 -4.54692 -6.16896
upperback 11.4112 -7.70765 -0.72396
thorax -4.60672 -3.79487 5.07535
lowerneck -18.9254 1.79924 -3.77864
upperneck 2.10662 2.8721 5.09018
head 3.49129 1.67792 2.4197
rclavicle 3.49861e-014 -3.61788e-014
rhumerus -56.0243 -58.7644 5.95769
rradius 16.6162
rwrist 24.6999
rhand -30.1455 0.460891
rfingers 7.12502
rthumb -3.45802 -29.4908
lclavicle 3.49861e-014 -3.61788e-014
lhumerus 36.8353 12.7743 42.3053
lradius 35.0857
lwrist -5.66671
lhand -26.5195 15.7679
lfingers 7.12502
lthumb 0.0439753 45.7477
rfemur -65.7301 12.2108 -19.1214
rtibia 30.8417
rfoot -10.4801 -10.192
rtoes -6.3342
lfemur -53.7232 10.9155 -7.3831
ltibia 30.2659
lfoot -11.7629 19.5501
ltoes 1.63208
1322
root -0.0691621 17.5779 -5.44432 34.7666 -17.0279 2.8649
lowerback 35.4537 -4.60946 -6.03698
upperback 11.3439 -7.72106 -0.614549
thorax -4.57615 -3.80485 5.11305
lowerneck -18.9931 1.82933 -4.22461
upperneck 2.10501 3.00451 5.27592
head 3.48588 1.7508 2.56022
rclavicle -3.18055e-015 -6.36111e-015
rhumerus -54.1909 -58.7124 4.47141
rradius 16.7247
rwrist 24.1318
rhand -29.913 -0.263294
rfingers 7.12502
rthumb -3.23343 -30.2185
lclavicle -3.18055e-015 -6.36111e-015
lhumerus 35.8574 13.5718 42.1054
lradius 34.8635
lwrist -5.5899
lhand -26.3864 15.6844
lfingers 7.12502
lthumb 0.172556 45.6641
rfemur -64.7866 12.2231 -18.5876
rtibia 31.343
rfoot -10.6732 -9.78319
rtoes -6.30801
lfemur -52.9001 10.4762 -7.40385
ltibia 30.2443
lfoot -11.7339 19.2764
ltoes 1.68654
1323
root -0.0673107 17.5754 -5.44096 33.8868 -16.6819 3.09345
lowerback 35.0334 -4.57811 -5.81833
upperback 11.1858 -7.59976 -0.577693
thorax -4.63614 -3.74077 4.98785
lowerneck -18.7466 1.80033 -4.44695
upperneck 2.04549 2.99866 5.43747
head 3.42586 1.75176 2.64053
rclavicle 1.90833e-014 2.38542e-014
rhumerus -52.9035 -58.2503 3.36313
rradius 16.8885
rwrist 23.3595
rhand -29.7947 -0.857279
rfingers 7.12502
rthumb -3.11916 -30.8142
lclavicle 1.90833e-014 2.38542e-014
lhumerus 35.003 13.9284 41.7955
lradius 34.6414
lwrist -5.43138
lhand -26.1484 15.8271
lfingers 7.12502
lthumb 0.402373 45.8064
rfemur -63.9979 12.229 -18.1464
rtibia 31.8376
rfoot -10.837 -9.41734
rtoes -6.33131
lfemur -52.1809 10.1202 -7.447
ltibia 30.2488
lfoot -11.6359 19.0137
ltoes 1.54277
1324
root -0.0679591 17.5769 -5.43538 32.9209 -16.4657 3.27796
lowerback 34.7016 -4.45342 -5.74367
upperback 11.0498 -7.41534 -0.519486
thorax -4.68749 -3.65191 4.94178
lowerneck -18.4433 1.78778 -4.6148
upperneck 1.85592 3.01582 5.42292
head 3.31861 1.754 2.6562
rclavicle 4.13472e-014 5.56597e-015
rhumerus -51.1906 -57.5014 1.83333
rradius 17.0649
rwrist 22.152
rhand -29.8544 -0.727368
rfingers 7.12502
rthumb -3.17682 -30.6834
lclavicle 4.13472e-014 5.56597e-015
lhumerus 34.1436 14.4022 41.6945
lradius 34.4616
lwrist -5.36414
lhand -25.9423 15.8949
lfingers 7.12502
lthumb 0.601427 45.8738
rfemur -63.2031 12.3938 -17.72
rtibia 32.3511
rfoot -10.996 -9.08405
rtoes -6.51403
lfemur -51.2983 9.89459 -7.52852
ltibia 30.2692
lfoot -11.5014 18.7168
ltoes 1.47412
1325
root -0.07084 17.5859 -5.42709 31.8505 -16.2588 3.44169
lowerback 34.442 -4.31513 -5.62974
upperback 10.9892 -7.20826 -0.526095
thorax -4.69631 -3.55329 4.8004
lowerneck -18.3498 1.80204 -4.57179
upperneck 1.69451 3.03584 5.28399
head 3.25595 1.7555 2.60379
rclavicle 8.26944e-014 -3.97569e-015
rhumerus -50.2232 -57.183 0.970018
rradius 17.2239
rwrist 21.5491
rhand -29.8232 -0.249141
rfingers 7.12502
rthumb -3.14673 -30.2057
lclavicle 8.26944e-014 -3.97569e-015
lhumerus 33.4089 14.9324 41.6726
lradius 34.3614
lwrist -5.37011
lhand -26.473 16.1035
lfingers 7.12502
lthumb 0.0889441 46.0832
rfemur -62.3108 12.7006 -17.2932
rtibia 32.8884
rfoot -11.2045 -8.79288
rtoes -6.77147
lfemur -50.2608 9.69674 -7.59974
ltibia 30.2837
lfoot -11.375 18.4461
ltoes 1.17972
1326
root -0.0749626 17.5951 -5.41816 30.8212 -15.7885 3.59972
lowerback 34.1812 -4.27288 -5.36997
upperback 10.955 -7.06405 -0.486752
thorax -4.67987 -3.48375 4.65007
lowerneck -18.4443 1.82441 -4.40347
upperneck 1.65189 3.04474 5.09985
head 3.26109 1.75229 2.52137
rclavicle -6.20208e-014 3.33958e-014
rhumerus -49.6339 -57.2224 0.531687
rradius 17.2928
rwrist 21.3133
rhand -29.6026 -0.217986
rfingers 7.12502
rthumb -2.93371 -30.1776
lclavicle -6.20208e-014 3.33958e-014
lhumerus 32.7123 15.487 41.5502
lradius 34.2996
lwrist -5.16835
lhand -27.0774 16.2547
lfingers 7.12502
lthumb -0.494814 46.2339
rfemur -61.288 12.8682 -16.7346
rtibia 33.4101
rfoot -11.4887 -8.56017
rtoes -6.86293
lfemur -49.3386 9.44162 -7.62361
ltibia 30.2879
lfoot -11.1301 18.0918
ltoes 0.77029
